HIERARCHY
ROOT Hips
{
	OFFSET 0.000000 0.000000 0.000000
	CHANNELS 6 Xposition Yposition Zposition Zrotation Yrotation Xrotation 
	JOINT LHipJoint
	{
		OFFSET 0.000000 0.000000 0.000000
		CHANNELS 3 Zrotation Yrotation Xrotation
		JOINT LeftUpLeg
		{
			OFFSET 1.363060 -1.794630 0.839290
			CHANNELS 3 Zrotation Yrotation Xrotation
			JOINT LeftLeg
			{
				OFFSET 2.448110 -6.726130 0.000000
				CHANNELS 3 Zrotation Yrotation Xrotation
				JOINT LeftFoot
				{
					OFFSET 2.562200 -7.039590 0.000000
					CHANNELS 3 Zrotation Yrotation Xrotation
					JOINT LeftToeBase
					{
						OFFSET 0.157640 -0.433110 2.322550
						CHANNELS 3 Zrotation Yrotation Xrotation
						End Site
						{
							OFFSET 0.000000 0.000000 0.000000
						}
					}
				}
			}
		}
	}
	JOINT RHipJoint
	{
		OFFSET 0.000000 0.000000 0.000000
		CHANNELS 3 Zrotation Yrotation Xrotation
		JOINT RightUpLeg
		{
			OFFSET -1.305520 -1.794630 0.839290
			CHANNELS 3 Zrotation Yrotation Xrotation
			JOINT RightLeg
			{
				OFFSET -2.542530 -6.985550 0.000000
				CHANNELS 3 Zrotation Yrotation Xrotation
				JOINT RightFoot
				{
					OFFSET -2.568260 -7.056230 0.000000
					CHANNELS 3 Zrotation Yrotation Xrotation
					JOINT RightToeBase
					{
						OFFSET -0.164730 -0.452590 2.363150
						CHANNELS 3 Zrotation Yrotation Xrotation
						End Site
						{
							OFFSET 0.000000 0.000000 0.000000
						}
					}
				}
			}
		}
	}
}
MOTION
Frames: 33
Frame Time: 0.008333
4.123014 17.341371 0.976508 9.836053 -42.334065 12.715812 -9.474551 -0.430398 5.512510 -4.914563 -21.632846 -23.570903 -2.610691 -1.274763 -4.126182 -0.393899 -0.051934 13.724758 0.580100 -0.000000 -40.104100 10.442318 -0.448931 -5.027398 3.436320 -28.103198 -10.219767 1.384797 1.087282 -4.325063 -3.792004 -27.851186 2.051915 -8.218300 -0.000000 -55.249000
4.117724 17.346263 0.994931 9.716681 -42.129172 13.020124 -9.496755 -0.410318 5.549875 -4.812944 -21.609507 -23.679303 -2.612914 -1.280867 -4.437265 -0.424258 -0.364285 13.967256 0.469300 -0.000001 -39.998100 10.408996 -0.449286 -5.001613 3.643654 -27.997419 -10.313739 1.375265 1.123193 -4.451769 -3.899513 -28.205825 2.227880 -8.365300 0.000000 -55.042100
4.114146 17.351658 1.013240 9.567023 -42.019173 13.326548 -9.516207 -0.383661 5.566520 -4.730867 -21.495632 -23.776630 -2.614146 -1.286087 -4.720611 -0.453729 -0.681984 14.179004 0.354000 -0.000001 -39.881900 10.383497 -0.451134 -4.956344 3.853510 -27.791689 -10.380260 1.357278 1.164727 -4.618520 -4.033652 -28.577613 2.441126 -8.514200 0.000000 -54.811599
4.112459 17.356954 1.030432 9.396730 -42.007346 13.622261 -9.529912 -0.353720 5.565131 -4.656150 -21.333812 -23.842849 -2.611704 -1.291309 -4.994307 -0.477151 -0.949529 14.360445 0.254600 -0.000000 -39.776200 10.366634 -0.451237 -4.899772 4.051109 -27.502722 -10.409885 1.332251 1.209666 -4.821527 -4.191701 -28.945313 2.680502 -8.652400 0.000000 -54.577800
4.112840 17.361538 1.045789 9.209359 -42.084052 13.902380 -9.533552 -0.325293 5.544405 -4.595816 -21.145137 -24.037387 -2.596755 -1.279133 -4.930261 -0.491396 -1.163722 14.320640 0.174900 -0.000000 -39.697800 10.358404 -0.448993 -4.836546 4.231847 -27.150411 -10.404679 1.302631 1.256433 -5.054224 -4.368613 -29.290977 2.932026 -8.769100 0.000000 -54.352400
4.115104 17.364924 1.058827 9.010447 -42.233141 14.165670 -9.528297 -0.300929 5.507397 -4.539039 -20.940635 -24.243332 -2.577386 -1.263992 -4.768373 -0.497530 -1.310408 14.195081 0.120100 -0.000000 -39.660700 10.359526 -0.445488 -4.771090 4.393982 -26.757598 -10.371658 1.271077 1.302442 -5.308302 -4.557737 -29.598828 3.182013 -8.855901 0.000000 -54.148300
4.118991 17.366919 1.069313 8.804661 -42.438564 14.410723 -9.515500 -0.282578 5.456780 -4.479931 -20.730331 -24.394984 -2.558245 -1.254112 -4.645285 -0.497668 -1.383230 14.062308 0.092601 0.000000 -39.670400 10.369803 -0.441787 -4.708143 4.536474 -26.348783 -10.319099 1.240396 1.345331 -5.572469 -4.750056 -29.853160 3.418459 -8.907500 0.000000 -53.975599
4.123975 17.367489 1.077205 8.600859 -42.688669 14.636245 -9.495636 -0.271370 5.396613 -4.413084 -20.535180 -24.499648 -2.538437 -1.249226 -4.553033 -0.491627 -1.369757 13.919096 0.097400 -0.000000 -39.725999 10.387874 -0.438217 -4.652076 4.658800 -25.945553 -10.256958 1.212973 1.383401 -5.834780 -4.934733 -30.041154 3.632408 -8.922299 0.000000 -53.842700
4.129599 17.366802 1.082850 8.400635 -42.972457 14.845814 -9.470780 -0.266594 5.329304 -4.341993 -20.348924 -24.560871 -2.519581 -1.249996 -4.502798 -0.481649 -1.290273 13.777797 0.127000 -0.000000 -39.819199 10.411936 -0.435626 -4.603386 4.765767 -25.563063 -10.199972 1.190898 1.416036 -6.082815 -5.101542 -30.157270 3.815692 -8.903400 -0.000000 -53.749000
4.135345 17.365126 1.086482 8.212754 -43.284521 15.037807 -9.443233 -0.267858 5.257534 -4.265738 -20.181409 -24.587259 -2.500470 -1.255107 -4.483353 -0.467350 -1.143639 13.635098 0.181300 -0.000000 -39.939301 10.438926 -0.433277 -4.565531 4.857053 -25.214726 -10.155372 1.175554 1.442401 -6.304883 -5.240730 -30.196271 3.963573 -8.854800 0.000000 -53.695400
4.140896 17.362774 1.088597 8.036060 -43.614115 15.213976 -9.413982 -0.274295 5.184284 -4.187022 -20.027555 -24.584351 -2.482239 -1.264493 -4.493260 -0.449959 -0.947475 13.496739 0.253500 0.000001 -40.076400 10.460825 -0.424026 -4.541196 4.935628 -24.898097 -10.234627 1.170676 1.441690 -6.256477 -5.284209 -30.156906 3.924814 -8.783600 -0.000000 -53.678900
4.145910 17.360039 1.089617 7.874286 -43.962724 15.376299 -9.385416 -0.283731 5.110688 -4.108096 -19.884353 -24.560727 -2.463971 -1.276568 -4.525668 -0.429488 -0.712342 13.362183 0.338900 -0.000001 -40.220100 10.480705 -0.413297 -4.527140 5.003714 -24.620166 -10.356400 1.173608 1.431367 -6.126546 -5.279646 -30.049757 3.823012 -8.697700 -0.000000 -53.696299
4.150283 17.357240 1.089963 7.726611 -44.330853 15.528327 -9.359814 -0.294174 5.036640 -4.033558 -19.739107 -24.522480 -2.445869 -1.290268 -4.580233 -0.406706 -0.458768 13.236241 0.429499 -0.000000 -40.360800 10.500356 -0.404730 -4.518952 5.064989 -24.379445 -10.465040 1.181958 1.424109 -6.047059 -5.261982 -29.887749 3.744309 -8.604000 -0.000000 -53.734100
4.153859 17.354631 1.090098 7.590583 -44.718046 15.673536 -9.337303 -0.304027 4.963781 -3.963617 -19.589256 -24.478576 -2.427483 -1.304524 -4.645826 -0.381808 -0.193707 13.115351 0.522600 0.000000 -40.493300 10.519368 -0.398131 -4.513339 5.121386 -24.166167 -10.561028 1.194358 1.420565 -6.017031 -5.233309 -29.684571 3.693708 -8.510500 -0.000000 -53.792700
4.156571 17.352428 1.090394 7.463829 -45.124378 15.816091 -9.318307 -0.312081 4.892491 -3.900438 -19.426878 -24.435817 -2.409096 -1.318730 -4.716666 -0.355771 0.071037 12.999385 0.613900 0.000000 -40.612800 10.537178 -0.393178 -4.506266 5.175383 -23.966800 -10.648042 1.209271 1.421141 -6.031763 -5.196356 -29.454545 3.672020 -8.423300 0.000000 -53.865300
4.158441 17.350800 1.091207 7.342827 -45.549887 15.961671 -9.303446 -0.317692 4.822567 -3.845986 -19.242054 -24.400767 -2.391319 -1.332704 -4.790950 -0.329678 0.322447 12.889886 0.699200 0.000000 -40.715700 10.552991 -0.389669 -4.493657 5.230027 -23.766764 -10.732287 1.225325 1.425882 -6.082896 -5.154086 -29.211531 3.677503 -8.346300 0.000000 -53.938800
4.159363 17.349804 1.092765 7.226978 -45.994555 16.114801 -9.292662 -0.320601 4.754394 -3.800182 -19.031938 -24.380249 -2.374316 -1.346291 -4.862742 -0.304248 0.556457 12.784338 0.777199 0.000000 -40.801000 10.566449 -0.387471 -4.471876 5.287052 -23.552429 -10.820159 1.241094 1.434489 -6.161309 -5.109433 -28.968181 3.707298 -8.282800 -0.000000 -54.009900
4.159567 17.349480 1.095263 7.111456 -46.456504 16.279386 -9.285559 -0.321349 4.688693 -3.761233 -18.798468 -24.381453 -2.357926 -1.359363 -4.925146 -0.279957 0.773922 12.679233 0.848999 0.000000 -40.868400 10.577139 -0.386596 -4.438342 5.347860 -23.313529 -10.918474 1.255585 1.446191 -6.256599 -5.065000 -28.734935 3.757958 -8.234400 0.000000 -54.087900
4.159029 17.349730 1.098812 6.997423 -46.935302 16.460447 -9.283276 -0.320596 4.623727 -3.731331 -18.531819 -24.405658 -2.343243 -1.372452 -4.984030 -0.258100 0.963353 12.578201 0.910699 -0.000000 -40.921500 10.583850 -0.386684 -4.391217 5.414389 -23.040988 -11.034594 1.268357 1.460666 -6.359053 -5.022777 -28.516898 3.819833 -8.198100 0.000000 -54.137700
4.157836 17.350444 1.103436 6.883248 -47.424763 16.659542 -9.284287 -0.319205 4.561593 -3.706408 -18.243220 -24.458378 -2.329966 -1.385769 -5.031826 -0.238458 1.133508 12.475737 0.965900 -0.000001 -40.959800 10.587312 -0.388385 -4.330034 5.487144 -22.735636 -11.173578 1.279305 1.476826 -6.460932 -4.983848 -28.317670 3.891729 -8.174300 0.000000 -54.188500
4.156199 17.351451 1.109100 6.767346 -47.919251 16.878527 -9.288395 -0.318365 4.502306 -3.685465 -17.934544 -24.540350 -2.318570 -1.399819 -5.070365 -0.221394 1.283346 12.372253 1.014600 -0.000000 -40.986700 10.586005 -0.390340 -4.256115 5.566580 -22.398023 -11.359504 1.289409 1.490113 -6.511259 -4.937905 -28.135429 3.938806 -8.159200 0.000000 -54.230400
4.154258 17.352592 1.115738 6.649294 -48.412292 17.118106 -9.295173 -0.319064 4.446309 -3.667083 -17.611361 -24.651480 -2.309276 -1.414986 -5.100840 -0.206967 1.414117 12.267414 1.057400 0.000000 -41.005300 10.579234 -0.391966 -4.171880 5.653284 -22.034606 -11.605716 1.299779 1.497719 -6.480987 -4.878759 -27.966165 3.941716 -8.150000 -0.000000 -54.266400
4.152070 17.353627 1.123291 6.531127 -48.898585 17.379857 -9.304656 -0.321657 4.394203 -3.649454 -17.279814 -24.792641 -2.301980 -1.431471 -5.126673 -0.195142 1.527493 12.162280 1.094900 0.000000 -41.018400 10.569602 -0.396089 -4.078323 5.748176 -21.659356 -11.871872 1.310327 1.508016 -6.466025 -4.828347 -27.806966 3.957017 -8.143200 0.000000 -54.299100
4.150041 17.354467 1.131537 6.412882 -49.374159 17.658162 -9.317029 -0.327316 4.344639 -3.632083 -16.948280 -24.959942 -2.295806 -1.448537 -5.143810 -0.185120 1.629571 12.052970 1.129100 -0.000000 -41.028700 10.556278 -0.401391 -3.981303 5.848208 -21.284172 -12.154407 1.322060 1.519846 -6.460761 -4.782696 -27.650438 3.979774 -8.136400 0.000001 -54.328900
4.148112 17.354917 1.140433 6.299082 -49.833214 17.952169 -9.332208 -0.336099 4.298193 -3.614274 -16.622842 -25.151834 -2.290783 -1.466298 -5.155720 -0.176758 1.721164 11.941833 1.160200 0.000000 -41.038100 10.539215 -0.407341 -3.884270 5.953589 -20.921171 -12.454802 1.336141 1.532814 -6.461444 -4.738688 -27.490955 4.005099 -8.127600 -0.000000 -54.358600
4.146661 17.354947 1.149836 6.189040 -50.271892 18.257768 -9.350473 -0.348475 4.254235 -3.595992 -16.309180 -25.365226 -2.286356 -1.484249 -5.162910 -0.169565 1.804329 11.828701 1.188700 0.000000 -41.048500 10.517649 -0.412592 -3.792044 6.062576 -20.581577 -12.772316 1.353591 1.546017 -6.461641 -4.692227 -27.322937 4.028231 -8.115600 -0.000000 -54.392500
4.145733 17.354512 1.159570 6.089619 -50.689294 18.566667 -9.371889 -0.364412 4.211663 -3.578035 -16.015333 -25.594956 -2.281553 -1.501362 -5.160144 -0.162956 1.885853 11.710628 1.216999 0.000000 -41.060200 10.491229 -0.415454 -3.710122 6.171102 -20.275879 -13.102808 1.374970 1.558356 -6.454150 -4.638707 -27.139991 4.043445 -8.098899 0.000000 -54.428700
4.145430 17.353577 1.169695 6.000487 -51.083078 18.880447 -9.396810 -0.383270 4.170754 -3.562259 -15.737464 -25.839442 -2.277238 -1.518144 -5.159738 -0.157132 1.956672 11.596873 1.241500 -0.000000 -41.074200 10.459719 -0.415365 -3.638648 6.280764 -20.006043 -13.450329 1.400496 1.569973 -6.435978 -4.577328 -26.944836 4.049250 -8.079700 0.000000 -54.476700
4.145850 17.352217 1.180061 5.925882 -51.455794 19.190655 -9.425224 -0.404709 4.129989 -3.550679 -15.478791 -26.092897 -2.272682 -1.533625 -5.157134 -0.151606 2.021240 11.484915 1.263800 0.000000 -41.089899 10.423069 -0.410869 -3.580921 6.386826 -19.775212 -13.809217 1.429883 1.580065 -6.402460 -4.505790 -26.735509 4.043190 -8.057901 0.000000 -54.533900
4.147124 17.350504 1.190593 5.867840 -51.810769 19.490817 -9.456809 -0.428235 4.088531 -3.545277 -15.241305 -26.350958 -2.267440 -1.547173 -5.149793 -0.146129 2.083135 11.373987 1.285000 0.000000 -41.105400 10.381645 -0.400999 -3.538302 6.485184 -19.583131 -14.174298 1.462503 1.588238 -6.352109 -4.424154 -26.512762 4.025308 -8.034000 -0.000000 -54.598000
4.149119 17.348505 1.201301 5.828072 -52.150799 19.779891 -9.491351 -0.452928 4.045776 -3.549751 -15.016868 -26.609821 -2.262689 -1.559306 -5.146386 -0.141081 2.134023 11.270761 1.302100 -0.000000 -41.120400 10.336277 -0.385727 -3.508032 6.574928 -19.421997 -14.544975 1.497162 1.595007 -6.287534 -4.335109 -26.283271 3.998202 -8.010200 0.000000 -54.673099
4.151969 17.346395 1.211943 5.811057 -52.482813 20.044693 -9.527997 -0.478723 4.000029 -3.564741 -14.814051 -26.863105 -2.256621 -1.568428 -5.130274 -0.135421 2.190228 11.164092 1.320800 -0.000000 -41.131300 10.287815 -0.363884 -3.493055 6.647079 -19.291776 -14.907848 1.532726 1.599380 -6.208829 -4.238956 -26.044546 3.964264 -7.985200 0.000000 -54.753900
4.155479 17.344195 1.222718 5.812627 -52.808593 20.293350 -9.566384 -0.504741 3.951740 -3.594275 -14.616187 -27.110930 -2.251946 -1.576464 -5.121304 -0.130228 2.233791 11.068051 1.334900 0.000001 -41.137400 10.237587 -0.336982 -3.485564 6.705401 -19.176574 -15.267712 1.567645 1.603059 -6.125740 -4.142600 -25.809278 3.930609 -7.962300 0.000000 -54.842700
